<svg version="1.1" id="Layer_1" xmlns="http://www.w3.org/2000/svg" xmlns:xlink="http://www.w3.org/1999/xlink" x="0px" y="0px"
	 width="100%" viewBox="0 0 1178 1280" enable-background="new 0 0 1178 1280" xml:space="preserve">
<path fill="none" opacity="1.000000" stroke="none" 
	d="
M1179.000000,683.000000 
	C1179.000000,688.022095 1179.000000,693.044189 1178.589355,698.560303 
	C1175.514526,701.261841 1175.020264,712.858276 1177.550415,714.819336 
	C1177.881470,715.075928 1178.509521,714.949219 1179.000000,715.000000 
	C1179.000000,720.022095 1179.000000,725.044189 1178.589355,730.560303 
	C1175.514526,733.261841 1175.020142,744.858337 1177.550415,746.819397 
	C1177.881470,747.075928 1178.509521,746.949219 1179.000000,747.000000 
	C1179.000000,752.022095 1179.000000,757.044189 1178.589355,762.560303 
	C1175.514526,765.261841 1175.020142,776.858337 1177.550415,778.819336 
	C1177.881470,779.075867 1178.509521,778.949158 1179.000000,779.000000 
	C1179.000000,784.022095 1179.000000,789.044189 1178.589355,794.560303 
	C1175.514526,797.261841 1175.020142,808.858337 1177.550415,810.819336 
	C1177.881470,811.075867 1178.509521,810.949158 1179.000000,811.000000 
	C1179.000000,816.022095 1179.000000,821.044189 1178.589355,826.560303 
	C1175.514526,829.261841 1175.020264,840.858276 1177.550415,842.819336 
	C1177.881470,843.075867 1178.509521,842.949158 1179.000000,843.000000 
	C1179.000000,848.022095 1179.000000,853.044189 1178.589355,858.560303 
	C1175.514526,861.261841 1175.020264,872.858276 1177.550415,874.819336 
	C1177.881470,875.075867 1178.509521,874.949158 1179.000000,875.000000 
	C1179.000000,880.022095 1179.000000,885.044189 1178.589355,890.560303 
	C1175.514526,893.261841 1175.020142,904.858337 1177.550415,906.819336 
	C1177.881470,907.075867 1178.509521,906.949158 1179.000000,907.000000 
	C1179.000000,912.022095 1179.000000,917.044189 1178.589355,922.560303 
	C1175.514526,925.261841 1175.020142,936.858337 1177.550415,938.819336 
	C1177.881470,939.075867 1178.509521,938.949158 1179.000000,939.000000 
	C1179.000000,944.022095 1179.000000,949.044189 1178.589355,954.560303 
	C1175.514526,957.261841 1175.020264,968.858276 1177.550415,970.819336 
	C1177.881470,971.075867 1178.509521,970.949158 1179.000000,971.000000 
	C1179.000000,976.022095 1179.000000,981.044189 1178.589355,986.560303 
	C1175.514526,989.261841 1175.020264,1000.858276 1177.550415,1002.819336 
	C1177.881470,1003.075867 1178.509521,1002.949158 1179.000000,1003.000000 
	C1179.000000,1008.022095 1179.000000,1013.044189 1178.589355,1018.560303 
	C1175.514526,1021.261902 1175.020142,1032.857910 1177.550415,1034.819092 
	C1177.881470,1035.075684 1178.509521,1034.949097 1179.000000,1035.000000 
	C1179.000000,1040.022095 1179.000000,1045.044189 1178.589355,1050.560303 
	C1175.514526,1053.261963 1175.020142,1064.857910 1177.550415,1066.819214 
	C1177.881470,1067.075806 1178.509521,1066.949219 1179.000000,1067.000000 
	C1179.000000,1072.022095 1179.000000,1077.044189 1178.589355,1082.560303 
	C1175.514526,1085.261963 1175.020142,1096.857910 1177.550415,1098.819092 
	C1177.881470,1099.075684 1178.509521,1098.949097 1179.000000,1099.000000 
	C1179.000000,1104.022095 1179.000000,1109.044189 1178.589355,1114.560303 
	C1175.514526,1117.261963 1175.020142,1128.857910 1177.550415,1130.819092 
	C1177.881470,1131.075684 1178.509521,1130.949097 1179.000000,1131.000000 
	C1179.000000,1136.022095 1179.000000,1141.044189 1178.589355,1146.560303 
	C1175.514526,1149.261963 1175.020142,1160.857910 1177.550415,1162.819092 
	C1177.881470,1163.075684 1178.509521,1162.949097 1179.000000,1163.000000 
	C1179.000000,1168.022095 1179.000000,1173.044189 1178.589355,1178.560303 
	C1175.514526,1181.261963 1175.020142,1192.857910 1177.550415,1194.819092 
	C1177.881470,1195.075684 1178.509521,1194.949097 1179.000000,1195.000000 
	C1179.000000,1200.022095 1179.000000,1205.044189 1178.589355,1210.560303 
	C1175.514526,1213.261963 1175.020142,1224.857910 1177.550415,1226.819092 
	C1177.881470,1227.075684 1178.509521,1226.949097 1179.000000,1227.000000 
	C1179.000000,1232.022095 1179.000000,1237.044189 1178.589355,1242.560303 
	C1175.514526,1245.261963 1175.020142,1256.858032 1177.550415,1258.819092 
	C1177.881470,1259.075684 1178.509521,1258.949097 1179.000000,1259.000000 
	C1179.000000,1266.332397 1179.000000,1273.664917 1179.000000,1280.998047 
	C786.381104,1280.998657 393.762238,1280.998657 1.071669,1280.998657 
	C1.071669,854.432068 1.071669,427.864166 1.071669,1.000000 
	C392.354187,1.000000 783.708496,1.000000 1175.558350,1.451391 
	C1176.062622,4.001065 1175.745728,6.174922 1176.208374,8.167831 
	C1176.463989,9.268565 1178.026611,10.065904 1179.000000,11.000013 
	C1179.000000,16.022093 1179.000000,21.044184 1178.589355,26.560322 
	C1175.514526,29.262089 1175.020264,40.857880 1177.550415,42.819126 
	C1177.881470,43.075706 1178.509521,42.949120 1179.000000,43.000000 
	C1179.000000,48.022091 1179.000000,53.044186 1178.589355,58.560318 
	C1175.514526,61.262192 1175.020264,72.858170 1177.550415,74.819160 
	C1177.881470,75.075752 1178.509521,74.949120 1179.000000,75.000000 
	C1179.000000,80.022095 1179.000000,85.044182 1178.589355,90.560318 
	C1175.514526,93.261879 1175.020264,104.858139 1177.550415,106.819099 
	C1177.881470,107.075691 1178.509521,106.949127 1179.000000,107.000000 
	C1179.000000,112.022095 1179.000000,117.044182 1178.589355,122.560318 
	C1175.514526,125.261902 1175.020264,136.858398 1177.550415,138.819183 
	C1177.881470,139.075729 1178.509521,138.949127 1179.000000,139.000000 
	C1179.000000,144.022095 1179.000000,149.044189 1178.589355,154.560333 
	C1175.514526,157.261719 1175.020142,168.858398 1177.550415,170.819214 
	C1177.881470,171.075790 1178.509521,170.949142 1179.000000,171.000000 
	C1179.000000,176.022095 1179.000000,181.044189 1178.589355,186.560333 
	C1175.514526,189.261719 1175.020264,200.858353 1177.550415,202.819153 
	C1177.881470,203.075745 1178.509521,202.949142 1179.000000,203.000000 
	C1179.000000,208.022095 1179.000000,213.044189 1178.589355,218.560333 
	C1175.514526,221.261719 1175.020264,232.858353 1177.550415,234.819214 
	C1177.881470,235.075745 1178.509521,234.949127 1179.000000,235.000000 
	C1179.000000,240.022095 1179.000000,245.044189 1178.589355,250.560333 
	C1175.514404,253.261597 1175.020142,264.858215 1177.550415,266.819183 
	C1177.881470,267.075775 1178.509521,266.949127 1179.000000,267.000000 
	C1179.000000,272.022095 1179.000000,277.044189 1178.589355,282.560303 
	C1175.514404,285.261810 1175.020142,296.858215 1177.550537,298.819092 
	C1177.881592,299.075684 1178.509521,298.949127 1179.000000,299.000000 
	C1179.000000,304.022095 1179.000000,309.044189 1178.589355,314.560303 
	C1175.514404,317.261810 1175.020142,328.858215 1177.550415,330.819122 
	C1177.881470,331.075714 1178.509521,330.949127 1179.000000,331.000000 
	C1179.000000,336.022095 1179.000000,341.044189 1178.589355,346.560303 
	C1175.514404,349.261841 1175.020142,360.858215 1177.550537,362.819122 
	C1177.881592,363.075714 1178.509521,362.949158 1179.000000,363.000000 
	C1179.000000,368.022095 1179.000000,373.044189 1178.589355,378.560303 
	C1175.514404,381.261810 1175.020142,392.858215 1177.550415,394.819122 
	C1177.881592,395.075684 1178.509521,394.949127 1179.000000,395.000000 
	C1179.000000,400.022095 1179.000000,405.044189 1178.589355,410.560303 
	C1175.514404,413.261810 1175.020142,424.858215 1177.550415,426.819122 
	C1177.881470,427.075714 1178.509521,426.949127 1179.000000,427.000000 
	C1179.000000,432.022095 1179.000000,437.044189 1178.589355,442.560303 
	C1175.514404,445.261841 1175.020142,456.858215 1177.550415,458.819122 
	C1177.881470,459.075714 1178.509521,458.949127 1179.000000,459.000000 
	C1179.000000,464.022095 1179.000000,469.044189 1178.589355,474.560303 
	C1175.514404,477.261810 1175.020142,488.858215 1177.550415,490.819122 
	C1177.881470,491.075714 1178.509521,490.949127 1179.000000,491.000000 
	C1179.000000,496.022095 1179.000000,501.044189 1178.589355,506.560333 
	C1175.514526,509.261444 1175.020264,520.858215 1177.550415,522.819336 
	C1177.881470,523.075867 1178.509521,522.949219 1179.000000,523.000000 
	C1179.000000,528.022095 1179.000000,533.044189 1178.589355,538.560303 
	C1175.514526,541.261841 1175.020264,552.858276 1177.550415,554.819336 
	C1177.881470,555.075867 1178.509521,554.949219 1179.000000,555.000000 
	C1179.000000,560.022095 1179.000000,565.044189 1178.589355,570.560303 
	C1175.514526,573.261841 1175.020264,584.858276 1177.550415,586.819336 
	C1177.881470,587.075928 1178.509521,586.949219 1179.000000,587.000000 
	C1179.000000,592.022095 1179.000000,597.044189 1178.589355,602.560303 
	C1175.514526,605.261841 1175.020264,616.858276 1177.550415,618.819336 
	C1177.881470,619.075928 1178.509521,618.949219 1179.000000,619.000000 
	C1179.000000,624.022095 1179.000000,629.044189 1178.589355,634.560303 
	C1175.514526,637.261841 1175.020264,648.858276 1177.550415,650.819336 
	C1177.881470,651.075867 1178.509521,650.949219 1179.000000,651.000000 
	C1179.000000,656.022095 1179.000000,661.044189 1178.589355,666.560303 
	C1175.514526,669.261841 1175.020264,680.858276 1177.550415,682.819397 
	C1177.881470,683.075928 1178.509521,682.949219 1179.000000,683.000000 
M955.134888,523.937073 
	C955.222351,546.128906 955.309875,568.320679 955.402161,591.740662 
	C957.677124,590.349792 958.376038,589.994629 958.995911,589.533081 
	C973.798096,578.511719 986.042664,564.972595 996.870117,550.175415 
	C1004.287048,540.039246 1011.055115,529.428162 1018.702576,518.728699 
	C1032.166382,505.525391 1045.630127,492.322021 1059.663818,478.773529 
	C1066.569702,470.936493 1073.475586,463.099457 1080.881226,454.839722 
	C1087.868896,447.323059 1094.245972,439.436646 1097.139893,428.364166 
	C1080.737061,427.471741 1064.928833,426.611633 1048.852295,425.069244 
	C1048.308960,424.745972 1047.802856,424.253479 1047.216797,424.123901 
	C1028.289795,419.938995 1009.174683,420.868256 990.059998,422.165009 
	C988.680969,422.258545 987.360840,423.218689 985.197021,423.758759 
	C973.294556,422.964417 961.395752,421.576294 949.488892,421.504517 
	C927.574036,421.372345 905.653625,421.967346 883.738403,422.406525 
	C881.566284,422.450043 879.414551,423.512451 877.253357,424.102020 
	C878.151306,426.489288 878.953186,428.919769 879.997498,431.241241 
	C880.381897,432.095917 881.248901,432.818909 882.047974,433.388641 
	C892.266541,440.674896 902.512817,447.922394 913.158630,455.711853 
	C918.371521,460.523163 923.471680,465.464996 928.837769,470.098877 
	C932.273132,473.065399 936.101074,475.577301 939.991638,478.905579 
	C940.815125,479.672485 941.585144,480.508301 942.470581,481.195435 
	C949.550476,486.689606 954.336487,493.623444 954.953186,502.727661 
	C955.409424,509.463226 955.187134,516.244751 955.134888,523.937073 
M737.457458,627.075989 
	C737.274658,627.369690 737.091797,627.663452 736.431274,628.329651 
	C735.895386,629.164551 735.359497,629.999512 734.231628,631.166748 
	C732.940979,632.191711 731.719116,633.320801 730.349243,634.225952 
	C710.252136,647.505859 690.135376,660.755981 669.223694,673.995422 
	C663.215271,676.300720 657.036560,678.243286 651.226685,680.971313 
	C618.085327,696.532593 590.241211,719.541992 563.525574,744.047241 
	C550.919312,755.610535 538.735596,767.633789 526.166809,779.239014 
	C519.477966,785.415161 512.251099,791.005737 505.495605,797.113342 
	C498.510681,803.428345 491.515503,809.780457 485.085297,816.641541 
	C481.456268,820.513672 478.956360,825.444031 475.267944,830.029236 
	C474.473846,830.598694 473.584534,831.072266 472.900024,831.752075 
	C464.382874,840.210388 455.939819,848.743713 447.382111,857.160645 
	C442.964355,861.505676 438.356812,865.657715 433.174255,870.021729 
	C426.308807,875.659119 419.399231,881.243896 412.590759,886.949280 
	C406.323975,892.200806 400.165894,897.582092 393.367615,903.223572 
	C384.311798,911.946045 375.134583,920.547485 366.256927,929.447632 
	C362.441498,933.272705 359.247620,937.717651 355.115234,942.032104 
	C345.940674,949.367615 336.543762,956.446106 327.666626,964.125427 
	C321.321075,969.614746 315.672852,975.910156 309.073883,982.022705 
	C297.281799,991.970032 285.299255,1001.702881 273.768494,1011.944458 
	C266.739685,1018.187439 260.406677,1025.213867 253.178375,1032.171875 
	C252.373077,1032.761353 251.497849,1033.275757 250.772644,1033.951294 
	C230.810791,1052.544678 210.931732,1071.227417 190.892838,1089.737305 
	C175.868225,1103.615723 160.360275,1116.980591 145.568466,1131.099121 
	C121.746056,1153.837036 98.311729,1176.982422 74.783989,1200.027588 
	C71.797409,1202.953003 69.234673,1206.310913 65.487373,1210.599365 
	C67.755356,1209.712646 68.707016,1209.526001 69.444672,1209.024658 
	C82.912125,1199.869507 96.214622,1190.464355 109.829353,1181.534790 
	C140.973770,1161.108154 171.691437,1139.943359 203.655167,1120.876831 
	C239.458969,1099.519531 278.248901,1084.238892 317.701355,1070.892456 
	C360.263306,1056.494141 403.728821,1045.718018 448.124329,1038.508789 
	C481.786499,1033.042480 515.620728,1029.254761 549.644531,1028.172241 
	C576.410461,1027.320679 603.261353,1027.928589 630.035278,1028.933838 
	C650.426208,1029.699463 670.781555,1031.841431 691.106506,1033.840820 
	C725.040344,1037.178711 758.493774,1043.470703 791.722656,1051.022705 
	C831.194214,1059.993530 869.899658,1071.549561 907.956177,1085.312622 
	C916.236023,1088.307007 924.530579,1091.260864 933.235596,1094.766602 
	C944.304382,1100.501587 955.542603,1105.934937 966.406860,1112.034180 
	C989.434143,1124.961914 1012.606323,1137.683594 1035.096680,1151.502686 
	C1066.591797,1170.854614 1095.243652,1193.963379 1121.840576,1219.697632 
	C1126.848999,1224.543579 1133.920044,1227.257812 1140.028198,1231.278809 
	C1140.128784,1231.253174 1140.229492,1231.227539 1140.330078,1231.201904 
	C1140.208740,1231.142334 1140.087280,1231.082642 1139.941162,1230.285278 
	C1130.237915,1209.546997 1120.785522,1188.686646 1110.761475,1168.104492 
	C1100.508057,1147.051514 1089.683594,1126.276733 1079.131714,1105.368774 
	C1075.848877,1098.864014 1072.639771,1092.321777 1069.272705,1085.026489 
	C1063.134155,1066.773926 1055.056519,1049.425903 1044.936890,1032.279053 
	C1038.323242,1018.948303 1031.785400,1005.578979 1025.049194,992.310425 
	C1023.046448,988.365601 1020.486084,984.703796 1018.103760,980.162903 
	C1014.802063,972.265320 1011.589539,964.328857 1008.166077,956.484436 
	C1006.010559,951.545410 1003.538940,946.744324 1000.816895,941.234314 
	C995.558899,930.149292 990.300964,919.064270 984.947388,907.263550 
	C978.980469,895.168274 973.013489,883.072998 966.946045,870.237549 
	C965.675537,866.848022 964.617432,863.359802 963.096680,860.086487 
	C957.488403,848.015076 951.726807,836.014832 945.938049,823.269165 
	C939.036011,808.009277 932.167664,792.734070 925.212646,777.498413 
	C922.964294,772.573242 920.488647,767.751953 918.059021,762.147705 
	C916.721069,758.946106 915.537659,755.669067 914.018311,752.556030 
	C907.406799,739.010071 900.697571,725.511780 893.953430,711.283813 
	C883.563904,689.095276 873.327332,666.833191 862.711792,644.753357 
	C858.277466,635.530029 853.037598,626.693970 848.194641,616.986938 
	C847.748474,615.418701 847.302246,613.850403 847.125122,611.597290 
	C853.442688,598.838501 861.704346,587.367188 871.518616,577.176147 
	C887.089355,561.007751 903.226135,545.385925 918.936768,529.349915 
	C923.610291,524.579712 927.658508,519.196838 932.663696,513.305420 
	C926.273315,513.305420 921.182251,513.305420 915.161133,513.120483 
	C907.392395,513.499329 899.498291,513.132629 891.881226,514.413452 
	C876.404419,517.015686 861.176392,521.217590 845.653748,523.384766 
	C835.291992,524.831299 824.453979,524.997681 814.107849,523.629211 
	C807.857483,522.802490 802.140381,517.943970 796.050659,514.165405 
	C794.968872,511.397125 794.080505,508.533447 792.770203,505.877991 
	C788.315613,496.850739 783.712036,487.897034 779.095764,478.169891 
	C774.451599,468.230469 769.889709,458.251404 765.129761,448.367767 
	C762.619446,443.155365 759.763489,438.109467 757.037292,432.214264 
	C752.340027,420.769012 747.869507,409.223511 742.869141,397.912262 
	C739.274292,389.780365 734.972107,381.961121 730.909485,373.264587 
	C725.240784,361.510559 719.572083,349.756531 713.861877,337.263611 
	C704.549072,318.513885 695.236267,299.764130 685.863464,280.283478 
	C682.161926,271.448822 678.688721,262.509644 674.703003,253.805145 
	C669.346741,242.107574 663.594849,230.591156 657.917236,218.275253 
	C656.321167,214.800049 654.795837,211.290268 653.117737,207.855194 
	C640.699219,182.434830 628.174866,157.065842 615.847473,131.601456 
	C610.781433,121.136673 606.633911,110.198372 601.119019,99.988396 
	C596.245117,90.964973 590.239380,91.171471 585.472412,100.209587 
	C575.942078,118.279213 566.449280,136.389862 557.688232,154.838455 
	C547.634827,176.008484 538.391663,197.563278 528.218323,219.298660 
	C518.763977,238.180069 509.309662,257.061462 499.319885,276.381836 
	C490.253845,296.578857 481.187805,316.775879 471.742249,337.578522 
	C466.682983,347.306915 461.564362,357.005341 456.616577,366.790100 
	C455.673065,368.656036 455.404236,370.863190 454.250916,373.291382 
	C450.697144,381.129944 447.151917,388.972412 443.587433,396.806061 
	C438.708740,407.527985 433.815369,418.243286 428.394562,429.389191 
	C424.137115,438.188782 419.615082,446.872742 415.703522,455.823486 
	C412.403656,463.374603 409.812347,471.235321 406.385132,479.392822 
	C400.881073,490.906525 395.376984,502.420227 389.352722,514.392151 
	C381.937927,530.934082 374.523163,547.476013 366.734344,564.617249 
	C359.442017,579.391357 352.149689,594.165466 344.349945,609.386780 
	C336.847015,624.224792 329.344086,639.062744 321.342102,654.418823 
	C317.925232,661.738037 315.712830,670.021301 310.808075,676.149719 
	C303.524139,685.250977 294.414764,692.910828 285.931580,701.026611 
	C278.768158,707.879822 271.390503,714.509094 263.498932,721.482361 
	C237.982620,744.222595 215.408295,769.777283 192.968262,795.444031 
	C174.811554,816.211731 156.889038,837.184265 138.880341,858.081177 
	C136.284393,861.093384 133.787827,864.191284 131.245239,867.249573 
	C135.853592,866.363037 139.910660,864.909729 143.632629,862.850708 
	C179.556503,842.977661 215.228851,822.639893 251.379990,803.191284 
	C273.454651,791.315552 295.883362,779.953125 318.802032,769.829346 
	C344.831635,758.331421 370.618286,746.503845 395.866486,731.973938 
	C414.161102,724.042358 432.507416,716.227539 450.738770,708.153076 
	C481.565796,694.500183 512.325500,680.695190 543.087952,666.897034 
	C544.541992,666.244873 545.748657,665.040955 547.842834,664.047974 
	C550.975708,662.987244 554.159241,662.055237 557.233521,660.845581 
	C585.284973,649.807251 613.330383,638.753113 641.348877,627.631409 
	C651.629395,623.550720 661.833435,619.277283 672.870605,615.062500 
	C680.815674,612.247681 688.828308,609.608093 696.689575,606.576050 
	C707.827759,602.280212 718.685364,597.217407 731.112610,597.837830 
	C739.928040,598.277893 744.444275,603.962036 742.216309,612.790161 
	C741.010742,617.566895 739.357056,622.230469 737.942383,626.974854 
	C737.942383,626.974854 737.967651,626.938354 737.457458,627.075989 
z"/>
<path fill="#C7D9E4" opacity="1.000000" stroke="none" 
	d="
M1179.000000,1130.533203 
	C1178.509521,1130.949097 1177.881470,1131.075684 1177.550415,1130.819092 
	C1175.020142,1128.857910 1175.514526,1117.261963 1178.589355,1115.027100 
	C1179.000000,1120.022095 1179.000000,1125.044189 1179.000000,1130.533203 
z"/>
<path fill="#C7D9E4" opacity="1.000000" stroke="none" 
	d="
M1179.000000,1258.533203 
	C1178.509521,1258.949097 1177.881470,1259.075684 1177.550415,1258.819092 
	C1175.020142,1256.858032 1175.514526,1245.261963 1178.589355,1243.027100 
	C1179.000000,1248.022095 1179.000000,1253.044189 1179.000000,1258.533203 
z"/>
<path fill="#C7D9E4" opacity="1.000000" stroke="none" 
	d="
M1179.000000,1098.533203 
	C1178.509521,1098.949097 1177.881470,1099.075684 1177.550415,1098.819092 
	C1175.020142,1096.857910 1175.514526,1085.261963 1178.589355,1083.027100 
	C1179.000000,1088.022095 1179.000000,1093.044189 1179.000000,1098.533203 
z"/>
<path fill="#C7D9E4" opacity="1.000000" stroke="none" 
	d="
M1179.000000,778.533142 
	C1178.509521,778.949158 1177.881470,779.075867 1177.550415,778.819336 
	C1175.020142,776.858337 1175.514526,765.261841 1178.589355,763.027100 
	C1179.000000,768.022095 1179.000000,773.044189 1179.000000,778.533142 
z"/>
<path fill="#C7D9E4" opacity="1.000000" stroke="none" 
	d="
M1179.000000,810.533142 
	C1178.509521,810.949158 1177.881470,811.075867 1177.550415,810.819336 
	C1175.020142,808.858337 1175.514526,797.261841 1178.589355,795.027100 
	C1179.000000,800.022095 1179.000000,805.044189 1179.000000,810.533142 
z"/>
<path fill="#C7D9E4" opacity="1.000000" stroke="none" 
	d="
M1179.000000,1066.533203 
	C1178.509521,1066.949219 1177.881470,1067.075806 1177.550415,1066.819214 
	C1175.020142,1064.857910 1175.514526,1053.261963 1178.589355,1051.027100 
	C1179.000000,1056.022095 1179.000000,1061.044189 1179.000000,1066.533203 
z"/>
<path fill="#C7D9E4" opacity="1.000000" stroke="none" 
	d="
M1179.000000,1226.533203 
	C1178.509521,1226.949097 1177.881470,1227.075684 1177.550415,1226.819092 
	C1175.020142,1224.857910 1175.514526,1213.261963 1178.589355,1211.027100 
	C1179.000000,1216.022095 1179.000000,1221.044189 1179.000000,1226.533203 
z"/>
<path fill="#C7D9E4" opacity="1.000000" stroke="none" 
	d="
M1179.000000,842.533142 
	C1178.509521,842.949158 1177.881470,843.075867 1177.550415,842.819336 
	C1175.020264,840.858276 1175.514526,829.261841 1178.589355,827.027100 
	C1179.000000,832.022095 1179.000000,837.044189 1179.000000,842.533142 
z"/>
<path fill="#C7D9E4" opacity="1.000000" stroke="none" 
	d="
M1179.000000,1162.533203 
	C1178.509521,1162.949097 1177.881470,1163.075684 1177.550415,1162.819092 
	C1175.020142,1160.857910 1175.514526,1149.261963 1178.589355,1147.027100 
	C1179.000000,1152.022095 1179.000000,1157.044189 1179.000000,1162.533203 
z"/>
<path fill="#C7D9E4" opacity="1.000000" stroke="none" 
	d="
M1179.000000,1034.533203 
	C1178.509521,1034.949097 1177.881470,1035.075684 1177.550415,1034.819092 
	C1175.020142,1032.857910 1175.514526,1021.261902 1178.589355,1019.027161 
	C1179.000000,1024.022095 1179.000000,1029.044189 1179.000000,1034.533203 
z"/>
<path fill="#C7D9E4" opacity="1.000000" stroke="none" 
	d="
M1179.000000,874.533142 
	C1178.509521,874.949158 1177.881470,875.075867 1177.550415,874.819336 
	C1175.020264,872.858276 1175.514526,861.261841 1178.589355,859.027100 
	C1179.000000,864.022095 1179.000000,869.044189 1179.000000,874.533142 
z"/>
<path fill="#C7D9E4" opacity="1.000000" stroke="none" 
	d="
M1179.000000,1002.533142 
	C1178.509521,1002.949158 1177.881470,1003.075867 1177.550415,1002.819336 
	C1175.020264,1000.858276 1175.514526,989.261841 1178.589355,987.027100 
	C1179.000000,992.022095 1179.000000,997.044189 1179.000000,1002.533142 
z"/>
<path fill="#C7D9E4" opacity="1.000000" stroke="none" 
	d="
M1179.000000,1194.533203 
	C1178.509521,1194.949097 1177.881470,1195.075684 1177.550415,1194.819092 
	C1175.020142,1192.857910 1175.514526,1181.261963 1178.589355,1179.027100 
	C1179.000000,1184.022095 1179.000000,1189.044189 1179.000000,1194.533203 
z"/>
<path fill="#C7D9E4" opacity="1.000000" stroke="none" 
	d="
M1179.000000,906.533142 
	C1178.509521,906.949158 1177.881470,907.075867 1177.550415,906.819336 
	C1175.020142,904.858337 1175.514526,893.261841 1178.589355,891.027100 
	C1179.000000,896.022095 1179.000000,901.044189 1179.000000,906.533142 
z"/>
<path fill="#C7D9E4" opacity="1.000000" stroke="none" 
	d="
M1179.000000,970.533142 
	C1178.509521,970.949158 1177.881470,971.075867 1177.550415,970.819336 
	C1175.020264,968.858276 1175.514526,957.261841 1178.589355,955.027100 
	C1179.000000,960.022095 1179.000000,965.044189 1179.000000,970.533142 
z"/>
<path fill="#C7D9E4" opacity="1.000000" stroke="none" 
	d="
M1179.000000,938.533142 
	C1178.509521,938.949158 1177.881470,939.075867 1177.550415,938.819336 
	C1175.020142,936.858337 1175.514526,925.261841 1178.589355,923.027100 
	C1179.000000,928.022095 1179.000000,933.044189 1179.000000,938.533142 
z"/>
<path fill="#C7D9E4" opacity="1.000000" stroke="none" 
	d="
M1179.000000,746.533203 
	C1178.509521,746.949219 1177.881470,747.075928 1177.550415,746.819397 
	C1175.020142,744.858337 1175.514526,733.261841 1178.589355,731.027100 
	C1179.000000,736.022095 1179.000000,741.044189 1179.000000,746.533203 
z"/>
<path fill="#C7D9E4" opacity="1.000000" stroke="none" 
	d="
M1179.000000,42.533134 
	C1178.509521,42.949120 1177.881470,43.075706 1177.550415,42.819126 
	C1175.020264,40.857880 1175.514526,29.262089 1178.589355,27.027184 
	C1179.000000,32.022091 1179.000000,37.044186 1179.000000,42.533134 
z"/>
<path fill="#C7D9E4" opacity="1.000000" stroke="none" 
	d="
M1179.000000,74.533142 
	C1178.509521,74.949120 1177.881470,75.075752 1177.550415,74.819160 
	C1175.020264,72.858170 1175.514526,61.262192 1178.589355,59.027180 
	C1179.000000,64.022095 1179.000000,69.044182 1179.000000,74.533142 
z"/>
<path fill="#C7D9E4" opacity="1.000000" stroke="none" 
	d="
M1179.000000,106.533142 
	C1178.509521,106.949127 1177.881470,107.075691 1177.550415,106.819099 
	C1175.020264,104.858139 1175.514526,93.261879 1178.589355,91.027184 
	C1179.000000,96.022095 1179.000000,101.044182 1179.000000,106.533142 
z"/>
<path fill="#C7D9E4" opacity="1.000000" stroke="none" 
	d="
M1179.000000,138.533142 
	C1178.509521,138.949127 1177.881470,139.075729 1177.550415,138.819183 
	C1175.020264,136.858398 1175.514526,125.261902 1178.589355,123.027184 
	C1179.000000,128.022095 1179.000000,133.044189 1179.000000,138.533142 
z"/>
<path fill="#C7D9E4" opacity="1.000000" stroke="none" 
	d="
M1179.000000,170.533142 
	C1178.509521,170.949142 1177.881470,171.075790 1177.550415,170.819214 
	C1175.020142,168.858398 1175.514526,157.261719 1178.589355,155.027191 
	C1179.000000,160.022095 1179.000000,165.044189 1179.000000,170.533142 
z"/>
<path fill="#C7D9E4" opacity="1.000000" stroke="none" 
	d="
M1179.000000,202.533142 
	C1178.509521,202.949142 1177.881470,203.075745 1177.550415,202.819153 
	C1175.020264,200.858353 1175.514526,189.261719 1178.589355,187.027191 
	C1179.000000,192.022095 1179.000000,197.044189 1179.000000,202.533142 
z"/>
<path fill="#C7D9E4" opacity="1.000000" stroke="none" 
	d="
M1179.000000,234.533142 
	C1178.509521,234.949127 1177.881470,235.075745 1177.550415,234.819214 
	C1175.020264,232.858353 1175.514526,221.261719 1178.589355,219.027191 
	C1179.000000,224.022095 1179.000000,229.044189 1179.000000,234.533142 
z"/>
<path fill="#C7D9E4" opacity="1.000000" stroke="none" 
	d="
M1179.000000,266.533142 
	C1178.509521,266.949127 1177.881470,267.075775 1177.550415,266.819183 
	C1175.020142,264.858215 1175.514404,253.261597 1178.589355,251.027191 
	C1179.000000,256.022095 1179.000000,261.044189 1179.000000,266.533142 
z"/>
<path fill="#C7D9E4" opacity="1.000000" stroke="none" 
	d="
M1179.000000,298.533142 
	C1178.509521,298.949127 1177.881592,299.075684 1177.550537,298.819092 
	C1175.020142,296.858215 1175.514404,285.261810 1178.589355,283.027161 
	C1179.000000,288.022095 1179.000000,293.044189 1179.000000,298.533142 
z"/>
<path fill="#C7D9E4" opacity="1.000000" stroke="none" 
	d="
M1179.000000,330.533142 
	C1178.509521,330.949127 1177.881470,331.075714 1177.550415,330.819122 
	C1175.020142,328.858215 1175.514404,317.261810 1178.589355,315.027161 
	C1179.000000,320.022095 1179.000000,325.044189 1179.000000,330.533142 
z"/>
<path fill="#C7D9E4" opacity="1.000000" stroke="none" 
	d="
M1179.000000,362.533142 
	C1178.509521,362.949158 1177.881592,363.075714 1177.550537,362.819122 
	C1175.020142,360.858215 1175.514404,349.261841 1178.589355,347.027161 
	C1179.000000,352.022095 1179.000000,357.044189 1179.000000,362.533142 
z"/>
<path fill="#C7D9E4" opacity="1.000000" stroke="none" 
	d="
M1179.000000,394.533142 
	C1178.509521,394.949127 1177.881592,395.075684 1177.550415,394.819122 
	C1175.020142,392.858215 1175.514404,381.261810 1178.589355,379.027161 
	C1179.000000,384.022095 1179.000000,389.044189 1179.000000,394.533142 
z"/>
<path fill="#C7D9E4" opacity="1.000000" stroke="none" 
	d="
M1179.000000,426.533142 
	C1178.509521,426.949127 1177.881470,427.075714 1177.550415,426.819122 
	C1175.020142,424.858215 1175.514404,413.261810 1178.589355,411.027161 
	C1179.000000,416.022095 1179.000000,421.044189 1179.000000,426.533142 
z"/>
<path fill="#C7D9E4" opacity="1.000000" stroke="none" 
	d="
M1179.000000,458.533142 
	C1178.509521,458.949127 1177.881470,459.075714 1177.550415,458.819122 
	C1175.020142,456.858215 1175.514404,445.261841 1178.589355,443.027161 
	C1179.000000,448.022095 1179.000000,453.044189 1179.000000,458.533142 
z"/>
<path fill="#C7D9E4" opacity="1.000000" stroke="none" 
	d="
M1179.000000,490.533142 
	C1178.509521,490.949127 1177.881470,491.075714 1177.550415,490.819122 
	C1175.020142,488.858215 1175.514404,477.261810 1178.589355,475.027161 
	C1179.000000,480.022095 1179.000000,485.044189 1179.000000,490.533142 
z"/>
<path fill="#C7D9E4" opacity="1.000000" stroke="none" 
	d="
M1179.000000,522.533203 
	C1178.509521,522.949219 1177.881470,523.075867 1177.550415,522.819336 
	C1175.020264,520.858215 1175.514526,509.261444 1178.589355,507.027191 
	C1179.000000,512.022095 1179.000000,517.044189 1179.000000,522.533203 
z"/>
<path fill="#C7D9E4" opacity="1.000000" stroke="none" 
	d="
M1179.000000,554.533203 
	C1178.509521,554.949219 1177.881470,555.075867 1177.550415,554.819336 
	C1175.020264,552.858276 1175.514526,541.261841 1178.589355,539.027100 
	C1179.000000,544.022095 1179.000000,549.044189 1179.000000,554.533203 
z"/>
<path fill="#C7D9E4" opacity="1.000000" stroke="none" 
	d="
M1179.000000,586.533203 
	C1178.509521,586.949219 1177.881470,587.075928 1177.550415,586.819336 
	C1175.020264,584.858276 1175.514526,573.261841 1178.589355,571.027100 
	C1179.000000,576.022095 1179.000000,581.044189 1179.000000,586.533203 
z"/>
<path fill="#C7D9E4" opacity="1.000000" stroke="none" 
	d="
M1179.000000,618.533203 
	C1178.509521,618.949219 1177.881470,619.075928 1177.550415,618.819336 
	C1175.020264,616.858276 1175.514526,605.261841 1178.589355,603.027100 
	C1179.000000,608.022095 1179.000000,613.044189 1179.000000,618.533203 
z"/>
<path fill="#C7D9E4" opacity="1.000000" stroke="none" 
	d="
M1179.000000,650.533203 
	C1178.509521,650.949219 1177.881470,651.075867 1177.550415,650.819336 
	C1175.020264,648.858276 1175.514526,637.261841 1178.589355,635.027100 
	C1179.000000,640.022095 1179.000000,645.044189 1179.000000,650.533203 
z"/>
<path fill="#C7D9E4" opacity="1.000000" stroke="none" 
	d="
M1179.000000,682.533203 
	C1178.509521,682.949219 1177.881470,683.075928 1177.550415,682.819397 
	C1175.020264,680.858276 1175.514526,669.261841 1178.589355,667.027100 
	C1179.000000,672.022095 1179.000000,677.044189 1179.000000,682.533203 
z"/>
<path fill="#C7D9E4" opacity="1.000000" stroke="none" 
	d="
M1179.000000,714.533203 
	C1178.509521,714.949219 1177.881470,715.075928 1177.550415,714.819336 
	C1175.020264,712.858276 1175.514526,701.261841 1178.589355,699.027100 
	C1179.000000,704.022095 1179.000000,709.044189 1179.000000,714.533203 
z"/>
<path fill="#C7D9E4" opacity="1.000000" stroke="none" 
	d="
M1179.000000,10.513449 
	C1178.026611,10.065904 1176.463989,9.268565 1176.208374,8.167831 
	C1175.745728,6.174922 1176.062622,4.001065 1176.027100,1.451391 
	C1176.962158,1.000000 1177.924316,1.000000 1179.000000,1.000000 
	C1179.000000,4.008485 1179.000000,7.017678 1179.000000,10.513449 
z"/>
<path fill="#CCABB0" opacity="1.000000" stroke="none" 
	d="
M1018.181213,980.912231 
	C1020.486084,984.703796 1023.046448,988.365601 1025.049194,992.310425 
	C1031.785400,1005.578979 1038.323242,1018.948303 1044.500854,1032.642822 
	C995.106873,1033.336792 946.149170,1033.869385 897.190918,1033.927002 
	C864.066711,1033.966064 830.939087,1033.493164 797.818237,1032.936523 
	C782.728821,1032.683228 767.647705,1031.758667 752.571106,1030.977783 
	C742.314819,1030.446533 732.053894,1029.844849 721.828796,1028.906616 
	C701.903931,1027.078247 682.035889,1024.502563 662.082397,1023.151611 
	C642.710022,1021.840027 623.263062,1021.270935 603.843079,1021.117981 
	C583.389038,1020.957031 562.928040,1021.675049 542.470093,1022.009644 
	C541.970276,1022.017822 541.469116,1022.014404 540.970947,1022.049744 
	C522.472717,1023.364624 503.967285,1024.588501 485.480133,1026.044189 
	C477.080963,1026.705688 468.708984,1027.752197 460.340912,1028.759277 
	C449.178467,1030.102783 438.058380,1032.494995 426.873260,1032.818848 
	C397.263855,1033.675781 367.629761,1033.760254 338.004211,1033.935913 
	C329.048431,1033.989014 320.090790,1033.232544 311.129883,1033.026001 
	C292.008392,1032.584717 272.884186,1032.260498 253.761124,1031.888306 
	C260.406677,1025.213867 266.739685,1018.187439 273.768494,1011.944458 
	C285.299255,1001.702881 297.281799,991.970032 309.889099,981.985352 
	C373.816040,982.297852 436.928009,982.973206 500.039429,982.927185 
	C617.474121,982.841614 734.908691,982.400146 852.342834,981.976624 
	C907.622864,981.777222 962.901794,981.276428 1018.181213,980.912231 
z"/>
<path fill="#CAB8BF" opacity="1.000000" stroke="none" 
	d="
M1018.142456,980.537598 
	C962.901794,981.276428 907.622864,981.777222 852.342834,981.976624 
	C734.908691,982.400146 617.474121,982.841614 500.039429,982.927185 
	C436.928009,982.973206 373.816040,982.297852 310.208893,981.896973 
	C315.672852,975.910156 321.321075,969.614746 327.666626,964.125427 
	C336.543762,956.446106 345.940674,949.367615 355.934326,941.997803 
	C387.030640,942.309021 417.308289,942.986206 447.584961,942.943970 
	C597.809631,942.734314 748.033936,942.328491 898.258362,942.007263 
	C932.575195,941.933899 966.892212,941.921753 1001.209106,941.881348 
	C1003.538940,946.744324 1006.010559,951.545410 1008.166077,956.484436 
	C1011.589539,964.328857 1014.802063,972.265320 1018.142456,980.537598 
z"/>
<path fill="#CD9CA0" opacity="1.000000" stroke="none" 
	d="
M253.469742,1032.030029 
	C272.884186,1032.260498 292.008392,1032.584717 311.129883,1033.026001 
	C320.090790,1033.232544 329.048431,1033.989014 338.004211,1033.935913 
	C367.629761,1033.760254 397.263855,1033.675781 426.873260,1032.818848 
	C438.058380,1032.494995 449.178467,1030.102783 460.340912,1028.759277 
	C468.708984,1027.752197 477.080963,1026.705688 485.480133,1026.044189 
	C503.967285,1024.588501 522.472717,1023.364624 540.970947,1022.049744 
	C541.469116,1022.014404 541.970276,1022.017822 542.470093,1022.009644 
	C562.928040,1021.675049 583.389038,1020.957031 603.843079,1021.117981 
	C623.263062,1021.270935 642.710022,1021.840027 662.082397,1023.151611 
	C682.035889,1024.502563 701.903931,1027.078247 721.828796,1028.906616 
	C732.053894,1029.844849 742.314819,1030.446533 752.571106,1030.977783 
	C767.647705,1031.758667 782.728821,1032.683228 797.818237,1032.936523 
	C830.939087,1033.493164 864.066711,1033.966064 897.190918,1033.927002 
	C946.149170,1033.869385 995.106873,1033.336792 1044.533691,1033.003296 
	C1055.056519,1049.425903 1063.134155,1066.773926 1068.874756,1085.470459 
	C1067.001831,1086.102539 1065.530273,1086.328003 1064.050903,1086.472778 
	C1048.609863,1087.986084 1033.189331,1089.812500 1017.716003,1090.848389 
	C1010.326355,1091.342896 1002.833374,1090.010132 995.391418,1090.065918 
	C979.460632,1090.185425 963.522705,1090.443237 947.609253,1091.138306 
	C942.643433,1091.355347 937.746765,1093.157104 932.818420,1094.233398 
	C924.530579,1091.260864 916.236023,1088.307007 907.956177,1085.312622 
	C869.899658,1071.549561 831.194214,1059.993530 791.722656,1051.022705 
	C758.493774,1043.470703 725.040344,1037.178711 691.106506,1033.840820 
	C670.781555,1031.841431 650.426208,1029.699463 630.035278,1028.933838 
	C603.261353,1027.928589 576.410461,1027.320679 549.644531,1028.172241 
	C515.620728,1029.254761 481.786499,1033.042480 448.124329,1038.508789 
	C403.728821,1045.718018 360.263306,1056.494141 317.701355,1070.892456 
	C278.248901,1084.238892 239.458969,1099.519531 203.655167,1120.876831 
	C171.691437,1139.943359 140.973770,1161.108154 109.829353,1181.534790 
	C96.214622,1190.464355 82.912125,1199.869507 69.444672,1209.024658 
	C68.707016,1209.526001 67.755356,1209.712646 65.487373,1210.599365 
	C69.234673,1206.310913 71.797409,1202.953003 74.783989,1200.027588 
	C98.311729,1176.982422 121.746056,1153.837036 145.568466,1131.099121 
	C160.360275,1116.980591 175.868225,1103.615723 190.892838,1089.737305 
	C210.931732,1071.227417 230.810791,1052.544678 250.772644,1033.951294 
	C251.497849,1033.275757 252.373077,1032.761353 253.469742,1032.030029 
z"/>
<path fill="#C2E4F1" opacity="1.000000" stroke="none" 
	d="
M918.116943,762.883118 
	C920.488647,767.751953 922.964294,772.573242 925.212646,777.498413 
	C932.167664,792.734070 939.036011,808.009277 945.549561,823.632568 
	C944.164673,824.042847 943.135498,823.943359 942.176636,824.158081 
	C919.770813,829.174744 896.935120,830.084778 874.134460,830.871338 
	C862.711121,831.265442 851.242981,830.305908 839.793701,830.014648 
	C825.348572,829.647095 810.901489,829.043274 796.456299,829.073792 
	C777.180359,829.114563 757.906067,829.907471 738.630005,829.954224 
	C684.506653,830.085571 630.382385,830.116333 576.259216,829.954529 
	C545.825378,829.863525 515.392944,829.313416 485.113495,828.675354 
	C494.933258,819.065063 504.137878,809.201599 514.382568,800.573059 
	C527.128479,789.838074 540.733215,780.122986 554.236511,770.261902 
	C569.541748,771.369324 584.576172,772.854858 599.613647,772.886353 
	C700.156311,773.097351 800.699585,772.959473 901.242554,773.074341 
	C909.233459,773.083496 915.252319,770.859192 918.116943,762.883118 
z"/>
<path fill="#C7D9E4" opacity="1.000000" stroke="none" 
	d="
M484.959839,828.970093 
	C515.392944,829.313416 545.825378,829.863525 576.259216,829.954529 
	C630.382385,830.116333 684.506653,830.085571 738.630005,829.954224 
	C757.906067,829.907471 777.180359,829.114563 796.456299,829.073792 
	C810.901489,829.043274 825.348572,829.647095 839.793701,830.014648 
	C851.242981,830.305908 862.711121,831.265442 874.134460,830.871338 
	C896.935120,830.084778 919.770813,829.174744 942.176636,824.158081 
	C943.135498,823.943359 944.164673,824.042847 945.592041,823.991821 
	C951.726807,836.014832 957.488403,848.015076 963.096680,860.086487 
	C964.617432,863.359802 965.675537,866.848022 966.525696,870.614868 
	C960.981628,871.318115 955.859131,871.663208 950.734070,871.966492 
	C933.530334,872.984619 916.334839,874.201416 899.118713,874.932251 
	C884.008484,875.573608 868.873962,875.975037 853.751892,875.928162 
	C827.961792,875.848267 802.173767,875.155701 776.383484,875.044373 
	C738.305908,874.879944 700.226685,875.105530 662.148987,874.953125 
	C642.858276,874.875854 623.570374,874.206604 604.279297,874.066284 
	C596.658508,874.010864 589.035095,874.757568 581.408264,874.977478 
	C567.453674,875.379822 553.494629,875.968628 539.539246,875.923828 
	C517.582275,875.853271 495.624939,875.407959 473.672241,874.919006 
	C468.905792,874.812805 464.153564,873.888733 459.403229,873.275818 
	C450.877075,872.175720 442.357391,871.026001 433.834991,869.896912 
	C438.356812,865.657715 442.964355,861.505676 447.382111,857.160645 
	C455.939819,848.743713 464.382874,840.210388 472.900024,831.752075 
	C473.584534,831.072266 474.473846,830.598694 476.025116,829.994019 
	C479.508148,829.629272 482.233978,829.299683 484.959839,828.970093 
z"/>
<path fill="#C8C1C9" opacity="1.000000" stroke="none" 
	d="
M367.108398,564.017883 
	C374.523163,547.476013 381.937927,530.934082 390.039307,514.186890 
	C407.471039,517.613525 424.433167,519.123901 441.541290,518.954102 
	C446.500336,518.904907 451.455536,518.025085 456.410217,518.046936 
	C515.186584,518.306458 573.962158,518.813477 632.738586,518.930847 
	C660.021851,518.985291 687.307312,518.387329 714.590027,517.972046 
	C725.047546,517.812927 735.502625,517.400391 745.954590,516.993896 
	C762.699463,516.342896 779.440796,515.600708 796.183594,514.897034 
	C802.140381,517.943970 807.857483,522.802490 814.107849,523.629211 
	C824.453979,524.997681 835.291992,524.831299 845.653748,523.384766 
	C861.176392,521.217590 876.404419,517.015686 891.881226,514.413452 
	C899.498291,513.132629 907.392395,513.499329 915.387207,513.433899 
	C906.065369,519.250488 896.517456,524.753662 886.595093,530.299500 
	C852.177673,542.347412 818.134705,554.352722 783.843018,566.000854 
	C775.360901,565.097412 767.132507,564.181213 758.893188,564.068970 
	C723.312805,563.584229 687.728882,563.030640 652.146912,563.070923 
	C598.085815,563.132202 544.025635,563.757507 489.964355,563.967407 
	C449.012939,564.126465 408.060394,564.011108 367.108398,564.017883 
z"/>
<path fill="#C9C3CB" opacity="1.000000" stroke="none" 
	d="
M1001.013000,941.557861 
	C966.892212,941.921753 932.575195,941.933899 898.258362,942.007263 
	C748.033936,942.328491 597.809631,942.734314 447.584961,942.943970 
	C417.308289,942.986206 387.030640,942.309021 356.262390,941.922241 
	C359.247620,937.717651 362.441498,933.272705 366.256927,929.447632 
	C375.134583,920.547485 384.311798,911.946045 393.930115,903.371338 
	C396.453674,903.768494 398.411133,904.051514 400.376312,904.262085 
	C418.286652,906.181213 436.161377,909.057007 454.119385,909.741577 
	C474.532379,910.519653 495.020386,909.349548 515.475342,909.000671 
	C533.931152,908.685852 552.385437,908.246460 570.842468,908.060852 
	C575.962097,908.009277 581.088806,908.951904 586.212524,908.955139 
	C679.536133,909.014099 772.859863,909.097839 866.183228,908.953491 
	C905.803528,908.892212 945.423096,908.319519 985.042969,907.979248 
	C990.300964,919.064270 995.558899,930.149292 1001.013000,941.557861 
z"/>
<path fill="#AADDF1" opacity="1.000000" stroke="none" 
	d="
M918.088013,762.515381 
	C915.252319,770.859192 909.233459,773.083496 901.242554,773.074341 
	C800.699585,772.959473 700.156311,773.097351 599.613647,772.886353 
	C584.576172,772.854858 569.541748,771.369324 554.397461,769.968262 
	C554.975830,768.659363 555.604492,767.870422 556.358154,767.228149 
	C569.706238,755.853699 582.818115,744.182678 596.506958,733.233398 
	C607.988403,724.049561 620.146912,715.712158 632.357544,707.148071 
	C641.343689,708.531921 649.965576,710.700134 658.614685,710.814880 
	C678.358643,711.076843 698.115295,710.263916 717.868530,710.066589 
	C721.165710,710.033691 724.471863,710.901611 728.816528,711.495972 
	C721.617859,719.848938 714.957031,727.000488 709.019165,734.708923 
	C706.006104,738.620361 704.296448,743.535950 701.855591,748.049622 
	C701.809937,748.068604 701.906189,748.035522 702.356812,747.966187 
	C710.760315,742.165588 718.829895,736.429565 726.851685,730.627441 
	C732.614929,726.458984 738.134277,721.926453 744.080811,718.044067 
	C755.321777,710.705017 767.384216,708.031128 781.186768,708.690674 
	C818.764282,710.486328 856.523926,706.591980 894.023804,711.996216 
	C900.697571,725.511780 907.406799,739.010071 914.018311,752.556030 
	C915.537659,755.669067 916.721069,758.946106 918.088013,762.515381 
z"/>
<path fill="#C8CDD6" opacity="1.000000" stroke="none" 
	d="
M984.995178,907.621399 
	C945.423096,908.319519 905.803528,908.892212 866.183228,908.953491 
	C772.859863,909.097839 679.536133,909.014099 586.212524,908.955139 
	C581.088806,908.951904 575.962097,908.009277 570.842468,908.060852 
	C552.385437,908.246460 533.931152,908.685852 515.475342,909.000671 
	C495.020386,909.349548 474.532379,910.519653 454.119385,909.741577 
	C436.161377,909.057007 418.286652,906.181213 400.376312,904.262085 
	C398.411133,904.051514 396.453674,903.768494 394.226288,903.212646 
	C400.165894,897.582092 406.323975,892.200806 412.590759,886.949280 
	C419.399231,881.243896 426.308807,875.659119 433.504639,869.959351 
	C442.357391,871.026001 450.877075,872.175720 459.403229,873.275818 
	C464.153564,873.888733 468.905792,874.812805 473.672241,874.919006 
	C495.624939,875.407959 517.582275,875.853271 539.539246,875.923828 
	C553.494629,875.968628 567.453674,875.379822 581.408264,874.977478 
	C589.035095,874.757568 596.658508,874.010864 604.279297,874.066284 
	C623.570374,874.206604 642.858276,874.875854 662.148987,874.953125 
	C700.226685,875.105530 738.305908,874.879944 776.383484,875.044373 
	C802.173767,875.155701 827.961792,875.848267 853.751892,875.928162 
	C868.873962,875.975037 884.008484,875.573608 899.118713,874.932251 
	C916.334839,874.201416 933.530334,872.984619 950.734070,871.966492 
	C955.859131,871.663208 960.981628,871.318115 966.575928,870.984985 
	C973.013489,883.072998 978.980469,895.168274 984.995178,907.621399 
z"/>
<path fill="#CAB5BC" opacity="1.000000" stroke="none" 
	d="
M366.921356,564.317566 
	C408.060394,564.011108 449.012939,564.126465 489.964355,563.967407 
	C544.025635,563.757507 598.085815,563.132202 652.146912,563.070923 
	C687.728882,563.030640 723.312805,563.584229 758.893188,564.068970 
	C767.132507,564.181213 775.360901,565.097412 783.606812,566.233337 
	C774.426636,571.263550 765.233948,575.704102 755.649353,580.127625 
	C749.051941,581.137939 747.691467,582.666565 748.246826,588.567871 
	C748.445801,590.682312 748.978394,592.834473 749.757507,594.812378 
	C752.244385,601.125916 754.918518,607.365601 757.194702,613.826721 
	C750.547913,618.328125 744.226746,622.636597 737.905518,626.945129 
	C739.357056,622.230469 741.010742,617.566895 742.216309,612.790161 
	C744.444275,603.962036 739.928040,598.277893 731.112610,597.837830 
	C718.685364,597.217407 707.827759,602.280212 696.689575,606.576050 
	C688.828308,609.608093 680.815674,612.247681 672.192627,614.771118 
	C656.720581,612.989075 641.950195,611.168945 627.125732,610.099915 
	C612.078857,609.014771 596.979004,608.131958 581.901306,608.114197 
	C550.120667,608.076721 518.338806,608.621582 486.558411,609.006470 
	C465.106598,609.266235 443.656036,609.950623 422.205627,609.920471 
	C396.422485,609.884277 370.640137,609.291443 344.857422,608.939636 
	C352.149689,594.165466 359.442017,579.391357 366.921356,564.317566 
z"/>
<path fill="#C7D9E4" opacity="1.000000" stroke="none" 
	d="
M757.063538,432.988403 
	C759.763489,438.109467 762.619446,443.155365 765.129761,448.367767 
	C769.889709,458.251404 774.451599,468.230469 778.645020,478.571259 
	C654.431946,478.968079 530.669678,478.963531 406.907440,478.959015 
	C409.812347,471.235321 412.403656,463.374603 415.703522,455.823486 
	C419.615082,446.872742 424.137115,438.188782 429.131653,429.188202 
	C443.062622,429.983643 456.242493,431.268677 469.453644,431.908325 
	C488.838837,432.846863 508.245514,433.851624 527.644592,433.884003 
	C564.236450,433.945129 600.829895,433.367218 637.421936,432.989502 
	C664.023682,432.714935 690.623718,432.177429 717.225769,432.069031 
	C730.503601,432.014923 743.784180,432.659729 757.063538,432.988403 
z"/>
<path fill="#C2E4F1" opacity="1.000000" stroke="none" 
	d="
M757.050415,432.601318 
	C743.784180,432.659729 730.503601,432.014923 717.225769,432.069031 
	C690.623718,432.177429 664.023682,432.714935 637.421936,432.989502 
	C600.829895,433.367218 564.236450,433.945129 527.644592,433.884003 
	C508.245514,433.851624 488.838837,432.846863 469.453644,431.908325 
	C456.242493,431.268677 443.062622,429.983643 429.398499,428.974304 
	C433.815369,418.243286 438.708740,407.527985 443.587433,396.806061 
	C447.151917,388.972412 450.697144,381.129944 454.839844,373.294556 
	C458.640930,380.116638 464.559418,381.993103 471.449890,381.993896 
	C551.264954,382.003082 631.080078,381.959076 710.895020,382.062164 
	C718.690857,382.072235 726.150940,382.141815 730.505615,374.084808 
	C730.553284,373.996674 730.820618,374.027283 730.985413,374.002441 
	C734.972107,381.961121 739.274292,389.780365 742.869141,397.912262 
	C747.869507,409.223511 752.340027,420.769012 757.050415,432.601318 
z"/>
<path fill="#8CCFE9" opacity="1.000000" stroke="none" 
	d="
M893.988647,711.640015 
	C856.523926,706.591980 818.764282,710.486328 781.186768,708.690674 
	C767.384216,708.031128 755.321777,710.705017 744.080811,718.044067 
	C738.134277,721.926453 732.614929,726.458984 726.851685,730.627441 
	C718.829895,736.429565 710.760315,742.165588 702.355591,747.964966 
	C702.000000,748.000000 701.997559,747.997559 701.997559,747.997559 
	C704.296448,743.535950 706.006104,738.620361 709.019165,734.708923 
	C714.957031,727.000488 721.617859,719.848938 728.816528,711.495972 
	C724.471863,710.901611 721.165710,710.033691 717.868530,710.066589 
	C698.115295,710.263916 678.358643,711.076843 658.614685,710.814880 
	C649.965576,710.700134 641.343689,708.531921 632.499268,706.843079 
	C636.097107,703.447388 640.063232,700.685730 643.682007,697.526428 
	C652.547791,689.786438 661.253296,681.862854 670.023254,674.013123 
	C690.135376,660.755981 710.252136,647.505859 730.349243,634.225952 
	C731.719116,633.320801 732.940979,632.191711 734.782898,631.306274 
	C735.961975,631.606873 736.631287,631.998718 737.211243,631.894287 
	C745.156738,630.463928 753.036194,628.458862 761.039551,627.611755 
	C770.969604,626.560669 781.029358,625.741760 790.977417,626.157166 
	C799.469299,626.511719 807.882324,628.752869 816.203613,630.473511 
	C814.136292,633.051392 812.305176,635.420959 810.236877,637.561401 
	C798.472168,649.736145 786.580322,661.789001 774.894714,674.038757 
	C771.671082,677.418030 769.004700,681.329041 766.082703,684.996033 
	C766.368286,685.305115 766.653809,685.614136 766.939392,685.923218 
	C769.961792,684.032227 773.278137,682.484985 775.958008,680.193481 
	C791.205322,667.155701 806.295044,653.933716 821.449890,640.787598 
	C830.343506,633.072937 839.258545,625.382935 848.163940,617.681824 
	C853.037598,626.693970 858.277466,635.530029 862.711792,644.753357 
	C873.327332,666.833191 883.563904,689.095276 893.988647,711.640015 
z"/>
<path fill="#C8CDD6" opacity="1.000000" stroke="none" 
	d="
M406.646301,479.175903 
	C530.669678,478.963531 654.431946,478.968079 778.679810,478.943939 
	C783.712036,487.897034 788.315613,496.850739 792.770203,505.877991 
	C794.080505,508.533447 794.968872,511.397125 796.117126,514.531250 
	C779.440796,515.600708 762.699463,516.342896 745.954590,516.993896 
	C735.502625,517.400391 725.047546,517.812927 714.590027,517.972046 
	C687.307312,518.387329 660.021851,518.985291 632.738586,518.930847 
	C573.962158,518.813477 515.186584,518.306458 456.410217,518.046936 
	C451.455536,518.025085 446.500336,518.904907 441.541290,518.954102 
	C424.433167,519.123901 407.471039,517.613525 390.299377,513.957825 
	C395.376984,502.420227 400.881073,490.906525 406.646301,479.175903 
z"/>
<path fill="#CAA7AC" opacity="1.000000" stroke="none" 
	d="
M344.603699,609.163208 
	C370.640137,609.291443 396.422485,609.884277 422.205627,609.920471 
	C443.656036,609.950623 465.106598,609.266235 486.558411,609.006470 
	C518.338806,608.621582 550.120667,608.076721 581.901306,608.114197 
	C596.979004,608.131958 612.078857,609.014771 627.125732,610.099915 
	C641.950195,611.168945 656.720581,612.989075 671.793518,614.785706 
	C661.833435,619.277283 651.629395,623.550720 641.348877,627.631409 
	C613.330383,638.753113 585.284973,649.807251 557.233521,660.845581 
	C554.159241,662.055237 550.975708,662.987244 547.195862,663.772522 
	C531.777161,661.998047 517.026855,660.202942 502.223999,659.135620 
	C495.666504,658.662781 489.004822,659.891357 482.386993,659.948486 
	C465.994873,660.089966 449.600372,659.929565 433.207611,660.027710 
	C419.677948,660.108765 406.518341,658.016663 393.916077,653.570862 
	C401.263153,650.603027 408.385529,647.974609 415.454895,645.210449 
	C425.410492,641.317688 435.326782,637.324402 445.259888,633.374146 
	C443.493988,632.212158 442.047302,631.992859 440.689056,632.246704 
	C429.321259,634.371155 417.760712,635.830688 406.654999,638.917786 
	C380.195435,646.272888 354.343536,655.858337 326.938934,659.886475 
	C325.147888,657.680054 323.494507,655.790344 321.841187,653.900696 
	C329.344086,639.062744 336.847015,624.224792 344.603699,609.163208 
z"/>
<path fill="#CE989B" opacity="1.000000" stroke="none" 
	d="
M321.591614,654.159790 
	C323.494507,655.790344 325.147888,657.680054 326.881989,660.240967 
	C325.357422,665.356323 323.752106,669.800537 321.932312,674.838379 
	C323.613373,674.437378 324.551086,674.276672 325.448639,673.990173 
	C340.954254,669.041626 356.407928,663.922974 371.977905,659.186401 
	C379.090729,657.022583 386.430725,655.605469 393.667694,653.849670 
	C406.518341,658.016663 419.677948,660.108765 433.207611,660.027710 
	C449.600372,659.929565 465.994873,660.089966 482.386993,659.948486 
	C489.004822,659.891357 495.666504,658.662781 502.223999,659.135620 
	C517.026855,660.202942 531.777161,661.998047 546.809692,663.795532 
	C545.748657,665.040955 544.541992,666.244873 543.087952,666.897034 
	C512.325500,680.695190 481.565796,694.500183 450.738770,708.153076 
	C432.507416,716.227539 414.161102,724.042358 395.154114,731.867432 
	C392.734863,731.169983 391.062683,730.212708 389.315491,730.047302 
	C377.629486,728.940491 365.941254,727.744873 354.224854,727.119812 
	C348.470642,726.812866 342.651520,727.987732 336.867126,727.932495 
	C320.085022,727.772461 303.270386,727.862549 286.541107,726.756531 
	C278.974731,726.256348 271.580200,723.157471 264.107666,721.237549 
	C271.390503,714.509094 278.768158,707.879822 285.931580,701.026611 
	C294.414764,692.910828 303.524139,685.250977 310.808075,676.149719 
	C315.712830,670.021301 317.925232,661.738037 321.591614,654.159790 
z"/>
<path fill="#A0D9EE" opacity="1.000000" stroke="none" 
	d="
M472.121765,336.972931 
	C481.187805,316.775879 490.253845,296.578857 499.917786,276.317322 
	C502.857391,281.734711 507.246918,282.427246 512.617798,282.051361 
	C525.493591,281.150208 538.398987,280.093170 551.291138,280.109985 
	C594.338928,280.166138 637.386047,280.666718 680.433472,280.995514 
	C682.263428,281.009491 684.093445,281.008453 685.923462,281.014404 
	C695.236267,299.764130 704.549072,318.513885 713.452515,337.628662 
	C701.274902,337.663696 689.507080,337.065216 677.738464,337.047943 
	C609.199646,336.947388 540.660706,336.983185 472.121765,336.972931 
z"/>
<path fill="#B4E1F1" opacity="1.000000" stroke="none" 
	d="
M471.932007,337.275726 
	C540.660706,336.983185 609.199646,336.947388 677.738464,337.047943 
	C689.507080,337.065216 701.274902,337.663696 713.473267,337.998108 
	C719.572083,349.756531 725.240784,361.510559 730.947449,373.633514 
	C730.820618,374.027283 730.553284,373.996674 730.505615,374.084808 
	C726.150940,382.141815 718.690857,382.072235 710.895020,382.062164 
	C631.080078,381.959076 551.264954,382.003082 471.449890,381.993896 
	C464.559418,381.993103 458.640930,380.116638 455.126465,373.105316 
	C455.404236,370.863190 455.673065,368.656036 456.616577,366.790100 
	C461.564362,357.005341 466.682983,347.306915 471.932007,337.275726 
z"/>
<path fill="#D38686" opacity="1.000000" stroke="none" 
	d="
M263.803314,721.359985 
	C271.580200,723.157471 278.974731,726.256348 286.541107,726.756531 
	C303.270386,727.862549 320.085022,727.772461 336.867126,727.932495 
	C342.651520,727.987732 348.470642,726.812866 354.224854,727.119812 
	C365.941254,727.744873 377.629486,728.940491 389.315491,730.047302 
	C391.062683,730.212708 392.734863,731.169983 394.799591,731.912842 
	C370.618286,746.503845 344.831635,758.331421 318.802032,769.829346 
	C295.883362,779.953125 273.454651,791.315552 251.379990,803.191284 
	C215.228851,822.639893 179.556503,842.977661 143.632629,862.850708 
	C139.910660,864.909729 135.853592,866.363037 131.245239,867.249573 
	C133.787827,864.191284 136.284393,861.093384 138.880341,858.081177 
	C156.889038,837.184265 174.811554,816.211731 192.968262,795.444031 
	C215.408295,769.777283 237.982620,744.222595 263.803314,721.359985 
z"/>
<path fill="#89D1EC" opacity="1.000000" stroke="none" 
	d="
M685.893433,280.648926 
	C684.093445,281.008453 682.263428,281.009491 680.433472,280.995514 
	C637.386047,280.666718 594.338928,280.166138 551.291138,280.109985 
	C538.398987,280.093170 525.493591,281.150208 512.617798,282.051361 
	C507.246918,282.427246 502.857391,281.734711 500.185547,276.097839 
	C509.309662,257.061462 518.763977,238.180069 528.995178,219.138550 
	C572.518982,218.984604 615.265869,218.990768 658.012817,218.996948 
	C663.594849,230.591156 669.346741,242.107574 674.703003,253.805145 
	C678.688721,262.509644 682.161926,271.448822 685.893433,280.648926 
z"/>
<path fill="#D18B8C" opacity="1.000000" stroke="none" 
	d="
M933.026978,1094.500000 
	C937.746765,1093.157104 942.643433,1091.355347 947.609253,1091.138306 
	C963.522705,1090.443237 979.460632,1090.185425 995.391418,1090.065918 
	C1002.833374,1090.010132 1010.326355,1091.342896 1017.716003,1090.848389 
	C1033.189331,1089.812500 1048.609863,1087.986084 1064.050903,1086.472778 
	C1065.530273,1086.328003 1067.001831,1086.102539 1068.937012,1085.855713 
	C1072.639771,1092.321777 1075.848877,1098.864014 1079.131714,1105.368774 
	C1089.683594,1126.276733 1100.508057,1147.051514 1110.761475,1168.104492 
	C1120.785522,1188.686646 1130.237915,1209.546997 1139.972900,1230.638428 
	C1140.004761,1230.991699 1140.039307,1230.955811 1140.039307,1230.955811 
	C1133.920044,1227.257812 1126.848999,1224.543579 1121.840576,1219.697632 
	C1095.243652,1193.963379 1066.591797,1170.854614 1035.096680,1151.502686 
	C1012.606323,1137.683594 989.434143,1124.961914 966.406860,1112.034180 
	C955.542603,1105.934937 944.304382,1100.501587 933.026978,1094.500000 
z"/>
<path fill="#72C6E7" opacity="1.000000" stroke="none" 
	d="
M657.965027,218.636108 
	C615.265869,218.990768 572.518982,218.984604 529.284302,218.964691 
	C538.391663,197.563278 547.634827,176.008484 557.688232,154.838455 
	C566.449280,136.389862 575.942078,118.279213 585.472412,100.209587 
	C590.239380,91.171471 596.245117,90.964973 601.119019,99.988396 
	C606.633911,110.198372 610.781433,121.136673 615.847473,131.601456 
	C628.174866,157.065842 640.699219,182.434830 653.117737,207.855194 
	C654.795837,211.290268 656.321167,214.800049 657.965027,218.636108 
z"/>
<path fill="#69B9DA" opacity="1.000000" stroke="none" 
	d="
M816.330261,630.159546 
	C807.882324,628.752869 799.469299,626.511719 790.977417,626.157166 
	C781.029358,625.741760 770.969604,626.560669 761.039551,627.611755 
	C753.036194,628.458862 745.156738,630.463928 737.211243,631.894287 
	C736.631287,631.998718 735.961975,631.606873 735.078918,631.140137 
	C735.359497,629.999512 735.895386,629.164551 736.922607,628.064148 
	C737.598511,627.511902 737.783081,627.225098 737.967651,626.938354 
	C737.967651,626.938354 737.942383,626.974854 737.923950,626.959961 
	C744.226746,622.636597 750.547913,618.328125 757.432495,613.692688 
	C761.761780,610.680237 765.527771,607.994751 769.634399,605.227539 
	C783.367310,596.844788 796.717834,588.475220 810.161743,580.258545 
	C831.109802,567.455505 852.217529,554.910400 873.036743,541.902527 
	C878.121460,538.725586 882.348267,534.175598 886.969482,530.256836 
	C896.517456,524.753662 906.065369,519.250488 915.852173,513.526367 
	C921.182251,513.305420 926.273315,513.305420 932.663696,513.305420 
	C927.658508,519.196838 923.610291,524.579712 918.936768,529.349915 
	C903.226135,545.385925 887.089355,561.007751 871.518616,577.176147 
	C861.704346,587.367188 853.442688,598.838501 846.567993,611.901855 
	C841.251221,613.759949 835.949158,614.464050 831.863098,617.072754 
	C826.206238,620.684326 821.464111,625.728699 816.330261,630.159546 
z"/>
<path fill="#69BDE0" opacity="1.000000" stroke="none" 
	d="
M912.752014,455.179688 
	C902.512817,447.922394 892.266541,440.674896 882.047974,433.388641 
	C881.248901,432.818909 880.381897,432.095917 879.997498,431.241241 
	C878.953186,428.919769 878.151306,426.489288 877.253357,424.101990 
	C879.414551,423.512451 881.566284,422.450043 883.738403,422.406525 
	C905.653625,421.967346 927.574036,421.372345 949.488892,421.504517 
	C961.395752,421.576294 973.294556,422.964417 985.831421,424.084290 
	C1001.618225,428.619873 1017.119263,428.321167 1032.600830,427.736359 
	C1038.124512,427.527679 1043.614990,426.438690 1049.120605,425.751526 
	C1064.928833,426.611633 1080.737061,427.471741 1097.139893,428.364166 
	C1094.245972,439.436646 1087.868896,447.323059 1080.179077,454.965851 
	C1077.690918,454.742828 1075.919312,454.226807 1074.116577,454.070221 
	C1054.354736,452.353882 1034.614624,449.899506 1014.815430,449.239960 
	C994.754883,448.571655 974.632996,449.621216 954.541809,450.082336 
	C949.764404,450.191986 944.987122,450.837524 940.235962,451.442627 
	C931.064758,452.610687 921.912292,453.925629 912.752014,455.179688 
z"/>
<path fill="#89D1EC" opacity="1.000000" stroke="none" 
	d="
M912.955322,455.445770 
	C921.912292,453.925629 931.064758,452.610687 940.235962,451.442627 
	C944.987122,450.837524 949.764404,450.191986 954.541809,450.082336 
	C974.632996,449.621216 994.754883,448.571655 1014.815430,449.239960 
	C1034.614624,449.899506 1054.354736,452.353882 1074.116577,454.070221 
	C1075.919312,454.226807 1077.690918,454.742828 1079.929199,455.177185 
	C1073.475586,463.099457 1066.569702,470.936493 1058.902344,478.910278 
	C1038.591553,478.704041 1019.043396,478.189087 999.492798,478.066162 
	C979.580750,477.940948 959.666321,478.201447 939.752930,478.293091 
	C936.101074,475.577301 932.273132,473.065399 928.837769,470.098877 
	C923.471680,465.464996 918.371521,460.523163 912.955322,455.445770 
z"/>
<path fill="#BDDFEC" opacity="1.000000" stroke="none" 
	d="
M939.872314,478.599335 
	C959.666321,478.201447 979.580750,477.940948 999.492798,478.066162 
	C1019.043396,478.189087 1038.591553,478.704041 1058.617310,479.082825 
	C1045.630127,492.322021 1032.166382,505.525391 1017.946228,518.864990 
	C1015.199890,518.945312 1013.201660,518.986023 1011.221130,518.818237 
	C992.343140,517.218323 973.556885,516.773010 955.267029,523.005798 
	C955.187134,516.244751 955.409424,509.463226 954.953186,502.727661 
	C954.336487,493.623444 949.550476,486.689606 942.470581,481.195435 
	C941.585144,480.508301 940.815125,479.672485 939.872314,478.599335 
z"/>
<path fill="#E5F8FC" opacity="1.000000" stroke="none" 
	d="
M669.623474,674.004272 
	C661.253296,681.862854 652.547791,689.786438 643.682007,697.526428 
	C640.063232,700.685730 636.097107,703.447388 632.147339,706.694946 
	C620.146912,715.712158 607.988403,724.049561 596.506958,733.233398 
	C582.818115,744.182678 569.706238,755.853699 556.358154,767.228149 
	C555.604492,767.870422 554.975830,768.659363 554.128052,769.673706 
	C540.733215,780.122986 527.128479,789.838074 514.382568,800.573059 
	C504.137878,809.201599 494.933258,819.065063 485.113495,828.675415 
	C482.233978,829.299683 479.508148,829.629272 476.365051,829.928223 
	C478.956360,825.444031 481.456268,820.513672 485.085297,816.641541 
	C491.515503,809.780457 498.510681,803.428345 505.495605,797.113342 
	C512.251099,791.005737 519.477966,785.415161 526.166809,779.239014 
	C538.735596,767.633789 550.919312,755.610535 563.525574,744.047241 
	C590.241211,719.541992 618.085327,696.532593 651.226685,680.971313 
	C657.036560,678.243286 663.215271,676.300720 669.623474,674.004272 
z"/>
<path fill="#C9C3CB" opacity="1.000000" stroke="none" 
	d="
M955.200928,523.471436 
	C973.556885,516.773010 992.343140,517.218323 1011.221130,518.818237 
	C1013.201660,518.986023 1015.199890,518.945312 1017.651550,519.015381 
	C1011.055115,529.428162 1004.287048,540.039246 996.870117,550.175415 
	C986.042664,564.972595 973.798096,578.511719 958.995911,589.533081 
	C958.376038,589.994629 957.677124,590.349792 955.402161,591.740662 
	C955.309875,568.320679 955.222351,546.128906 955.200928,523.471436 
z"/>
<path fill="#7D6976" opacity="1.000000" stroke="none" 
	d="
M816.203613,630.473572 
	C821.464111,625.728699 826.206238,620.684326 831.863098,617.072754 
	C835.949158,614.464050 841.251221,613.759949 846.433472,612.244263 
	C847.302246,613.850403 847.748474,615.418701 848.179321,617.334351 
	C839.258545,625.382935 830.343506,633.072937 821.449890,640.787598 
	C806.295044,653.933716 791.205322,667.155701 775.958008,680.193481 
	C773.278137,682.484985 769.961792,684.032227 766.939392,685.923218 
	C766.653809,685.614136 766.368286,685.305115 766.082703,684.996033 
	C769.004700,681.329041 771.671082,677.418030 774.894714,674.038757 
	C786.580322,661.789001 798.472168,649.736145 810.236877,637.561401 
	C812.305176,635.420959 814.136292,633.051392 816.203613,630.473572 
z"/>
<path fill="#BDDFEC" opacity="1.000000" stroke="none" 
	d="
M1048.986450,425.410400 
	C1043.614990,426.438690 1038.124512,427.527679 1032.600830,427.736359 
	C1017.119263,428.321167 1001.618225,428.619873 986.239502,424.092865 
	C987.360840,423.218689 988.680969,422.258545 990.059998,422.165009 
	C1009.174683,420.868256 1028.289795,419.938995 1047.216797,424.123901 
	C1047.802856,424.253479 1048.308960,424.745972 1048.986450,425.410400 
z"/>
<path fill="#CAB5BC" opacity="1.000000" stroke="none" 
	d="
M737.712524,627.007202 
	C737.783081,627.225098 737.598511,627.511902 737.161499,627.877930 
	C737.091797,627.663452 737.274658,627.369690 737.712524,627.007202 
z"/>
<path fill="#D18B8C" opacity="1.000000" stroke="none" 
	d="
M1139.985352,1231.007324 
	C1140.087280,1231.082642 1140.208740,1231.142334 1140.330078,1231.201904 
	C1140.229492,1231.227539 1140.128784,1231.253174 1140.033691,1231.117310 
	C1140.039307,1230.955811 1140.004761,1230.991699 1139.985352,1231.007324 
z"/>
<path fill="#495165" opacity="1.000000" stroke="none" 
	d="
M886.595093,530.299500 
	C882.348267,534.175598 878.121460,538.725586 873.036743,541.902527 
	C852.217529,554.910400 831.109802,567.455505 810.161743,580.258545 
	C796.717834,588.475220 783.367310,596.844788 769.322388,605.018311 
	C761.099548,598.357117 758.110474,589.485535 756.041260,580.144653 
	C765.233948,575.704102 774.426636,571.263550 783.855469,566.590515 
	C818.134705,554.352722 852.177673,542.347412 886.595093,530.299500 
z"/>
<path fill="#8CCFE9" opacity="1.000000" stroke="none" 
	d="
M702.001221,748.001221 
	C701.906189,748.035522 701.809937,748.068604 701.855591,748.049622 
	C701.997559,747.997559 702.000000,748.000000 702.001221,748.001221 
z"/>
<path fill="#7D6976" opacity="1.000000" stroke="none" 
	d="
M755.649353,580.127563 
	C758.110474,589.485535 761.099548,598.357117 768.981812,605.099976 
	C765.527771,607.994751 761.761780,610.680237 757.758057,613.499817 
	C754.918518,607.365601 752.244385,601.125916 749.757507,594.812378 
	C748.978394,592.834473 748.445801,590.682312 748.246826,588.567871 
	C747.691467,582.666565 749.051941,581.137939 755.649353,580.127563 
z"/>
<path fill="#7D6976" opacity="1.000000" stroke="none" 
	d="
M393.916077,653.570862 
	C386.430725,655.605469 379.090729,657.022583 371.977905,659.186401 
	C356.407928,663.922974 340.954254,669.041626 325.448639,673.990173 
	C324.551086,674.276672 323.613373,674.437378 321.932312,674.838379 
	C323.752106,669.800537 325.357422,665.356323 327.019684,660.557678 
	C354.343536,655.858337 380.195435,646.272888 406.654999,638.917786 
	C417.760712,635.830688 429.321259,634.371155 440.689056,632.246704 
	C442.047302,631.992859 443.493988,632.212158 445.259888,633.374146 
	C435.326782,637.324402 425.410492,641.317688 415.454895,645.210449 
	C408.385529,647.974609 401.263153,650.603027 393.916077,653.570862 
z"/>
</svg>